<svg id="visual" viewBox="0 0 1440 900" width="1440" height="900" xmlns="http://www.w3.org/2000/svg" xmlns:xlink="http://www.w3.org/1999/xlink" version="1.1"><rect x="0" y="0" width="1440" height="900" fill="#140021"></rect><path d="M0 403L65 403L65 525L131 525L131 411L196 411L196 414L262 414L262 520L327 520L327 492L393 492L393 475L458 475L458 521L524 521L524 454L589 454L589 499L655 499L655 459L720 459L720 339L785 339L785 522L851 522L851 538L916 538L916 412L982 412L982 387L1047 387L1047 523L1113 523L1113 358L1178 358L1178 358L1244 358L1244 412L1309 412L1309 441L1375 441L1375 418L1440 418L1440 442L1440 901L1440 901L1375 901L1375 901L1309 901L1309 901L1244 901L1244 901L1178 901L1178 901L1113 901L1113 901L1047 901L1047 901L982 901L982 901L916 901L916 901L851 901L851 901L785 901L785 901L720 901L720 901L655 901L655 901L589 901L589 901L524 901L524 901L458 901L458 901L393 901L393 901L327 901L327 901L262 901L262 901L196 901L196 901L131 901L131 901L65 901L65 901L0 901Z" fill="#9900ff"></path><path d="M0 497L65 497L65 557L131 557L131 639L196 639L196 623L262 623L262 564L327 564L327 587L393 587L393 678L458 678L458 649L524 649L524 551L589 551L589 629L655 629L655 528L720 528L720 510L785 510L785 511L851 511L851 474L916 474L916 680L982 680L982 495L1047 495L1047 576L1113 576L1113 616L1178 616L1178 497L1244 497L1244 602L1309 602L1309 591L1375 591L1375 502L1440 502L1440 591L1440 901L1440 901L1375 901L1375 901L1309 901L1309 901L1244 901L1244 901L1178 901L1178 901L1113 901L1113 901L1047 901L1047 901L982 901L982 901L916 901L916 901L851 901L851 901L785 901L785 901L720 901L720 901L655 901L655 901L589 901L589 901L524 901L524 901L458 901L458 901L393 901L393 901L327 901L327 901L262 901L262 901L196 901L196 901L131 901L131 901L65 901L65 901L0 901Z" fill="#7700c6"></path><path d="M0 647L65 647L65 703L131 703L131 650L196 650L196 674L262 674L262 698L327 698L327 692L393 692L393 648L458 648L458 691L524 691L524 746L589 746L589 697L655 697L655 791L720 791L720 676L785 676L785 787L851 787L851 650L916 650L916 654L982 654L982 669L1047 669L1047 799L1113 799L1113 667L1178 667L1178 693L1244 693L1244 798L1309 798L1309 781L1375 781L1375 641L1440 641L1440 774L1440 901L1440 901L1375 901L1375 901L1309 901L1309 901L1244 901L1244 901L1178 901L1178 901L1113 901L1113 901L1047 901L1047 901L982 901L982 901L916 901L916 901L851 901L851 901L785 901L785 901L720 901L720 901L655 901L655 901L589 901L589 901L524 901L524 901L458 901L458 901L393 901L393 901L327 901L327 901L262 901L262 901L196 901L196 901L131 901L131 901L65 901L65 901L0 901Z" fill="#560090"></path></svg>